<svg width="1440" height="199" viewBox="0 0 1440 199" fill="none" xmlns="http://www.w3.org/2000/svg">
<g filter="url(#filter0_b_5106_24985)">
<path fill-rule="evenodd" clip-rule="evenodd" d="M1061.95 0H840.864V44.9088H1044.68L1065.41 63.9087L1044.68 82.9086H840.864V197.772H885.773V124.363H992.863L1072.32 196.908H1139.68L1063.68 122.636L1112.04 77.7268V46.6361L1061.95 0ZM1137.55 96.7852L1242.68 0H1402.88L1508 96.7852L1402.88 196.908H1242.68L1137.55 96.7852ZM1246.72 142.856L1199.29 96.7852L1257.7 43.3865H1346.19L1246.72 142.856ZM1292.69 153.521L1395.68 50.536L1446.26 96.7852L1387.86 153.521H1292.69Z" fill="url(#paint0_linear_5106_24985)" fill-opacity="0.1"/>
</g>
<g filter="url(#filter1_b_5106_24985)">
<path fill-rule="evenodd" clip-rule="evenodd" d="M297.061 0L379.97 70.3467L462.879 0H535.424L404.152 110.999V196.908H355.788V110.999L224.516 0H297.061ZM-50.1181 96.731L-86.3906 65.6403L-8.66384 0.00430707H208.971L157.153 44.9131H10.336L-50.1181 96.731ZM-50.1181 100.176L-86.3906 131.267L-8.66384 196.903H208.971L157.153 151.994H10.336L-50.1181 100.176ZM770.331 0H556.15V41.4543H754.785L777.24 60.4542L759.967 79.454H556.15V198.635H773.785L820.421 158.908V124.363L795.746 99.3175L820.421 74.2723V43.1815L770.331 0ZM604.514 157.181V119.181H759.967L780.694 138.181L759.967 157.181H604.514Z" fill="url(#paint1_linear_5106_24985)" fill-opacity="0.1"/>
</g>
<defs>
<filter id="filter0_b_5106_24985" x="799.975" y="-40.8893" width="748.918" height="279.55" filterUnits="userSpaceOnUse" color-interpolation-filters="sRGB">
<feFlood flood-opacity="0" result="BackgroundImageFix"/>
<feGaussianBlur in="BackgroundImageFix" stdDeviation="20.4447"/>
<feComposite in2="SourceAlpha" operator="in" result="effect1_backgroundBlur_5106_24985"/>
<feBlend mode="normal" in="SourceGraphic" in2="effect1_backgroundBlur_5106_24985" result="shape"/>
</filter>
<filter id="filter1_b_5106_24985" x="-127.28" y="-40.8893" width="988.591" height="280.414" filterUnits="userSpaceOnUse" color-interpolation-filters="sRGB">
<feFlood flood-opacity="0" result="BackgroundImageFix"/>
<feGaussianBlur in="BackgroundImageFix" stdDeviation="20.4447"/>
<feComposite in2="SourceAlpha" operator="in" result="effect1_backgroundBlur_5106_24985"/>
<feBlend mode="normal" in="SourceGraphic" in2="effect1_backgroundBlur_5106_24985" result="shape"/>
</filter>
<linearGradient id="paint0_linear_5106_24985" x1="1065.05" y1="12.8992" x2="1065.05" y2="194.351" gradientUnits="userSpaceOnUse">
<stop stop-color="#727272"/>
<stop offset="1" stop-color="#656565" stop-opacity="0.49"/>
</linearGradient>
<linearGradient id="paint1_linear_5106_24985" x1="218.334" y1="12.9555" x2="218.334" y2="195.199" gradientUnits="userSpaceOnUse">
<stop stop-color="#727272"/>
<stop offset="1" stop-color="#656565" stop-opacity="0.49"/>
</linearGradient>
</defs>
</svg>
